<svg
  width="18"
  height="18"
  viewBox="0 0 18 18"
  fill="none"
  xmlns="http://www.w3.org/2000/svg"
>
    <g id="spanish-flag-icon">
        <defs>
        <clipPath id="spanish-flag-clip">
            <path d="M9 16.5C13.1421 16.5 16.5 13.1421 16.5 9C16.5 4.85786 13.1421 1.5 9 1.5C4.85786 1.5 1.5 4.85786 1.5 9C1.5 13.1421 4.85786 16.5 9 16.5Z" />
        </clipPath>
        </defs>

        <g id="base-circle">
        <path
            d="M9 16.5C13.1421 16.5 16.5 13.1421 16.5 9C16.5 4.85786 13.1421 1.5 9 1.5C4.85786 1.5 1.5 4.85786 1.5 9C1.5 13.1421 4.85786 16.5 9 16.5Z"
            fill="white"
        />
        </g>

        <g id="flag-stripes" clipPath="url(#spanish-flag-clip)">
        <path d="M1.5 1.5H16.5V6.5H1.5V1.5Z" fill="#C60B1E" />
        <path d="M1.5 6.5H16.5V11.5H1.5V6.5Z" fill="#FFC400" />
        <path d="M1.5 11.5H16.5V16.5H1.5V11.5Z" fill="#C60B1E" />
        </g>
    </g>
</svg>